<svg xmlns="http://www.w3.org/2000/svg" viewBox="0 0 650 260">
  <!-- Bag -->
  <rect x="10" y="20" width="140" height="140" rx="18" ry="18"
        fill="none" stroke="#E04A3C" stroke-width="14" />
  <path d="M55 15 C55 -10,115 -10,115 15" stroke="#E04A3C" stroke-width="14"
        fill="none" />

  <!-- Globe -->
  <g transform="translate(80,90)">
    <circle cx="0" cy="0" r="40" stroke="#0B3550" stroke-width="8" fill="none" />
    <path d="M -18 -40 C -10 -8, -10 8, -18 40" stroke="#0B3550" stroke-width="6" fill="none"/>
    <path d="M 0 -40 L 0 40" stroke="#0B3550" stroke-width="6" fill="none"/>
    <path d="M 18 -40 C 10 -8, 10 8, 18 40" stroke="#0B3550" stroke-width="6" fill="none"/>
    <path d="M -40 -18 C -18 -18, 18 -18, 40 -18" stroke="#0B3550" stroke-width="6" fill="none"/>
    <path d="M -40 0 C -18 0, 18 0, 40 0" stroke="#0B3550" stroke-width="6" fill="none"/>
    <path d="M -40 18 C -18 18, 18 18, 40 18" stroke="#0B3550" stroke-width="6" fill="none"/>
  </g>

  <!-- Text -->
  <text x="170" y="70" font-size="46" font-weight="800"
        font-family="Poppins, Arial" fill="#0B3550">
    Shopping
  </text>
  <text x="170" y="130" font-size="46" font-weight="800"
        font-family="Poppins, Arial" fill="#0B3550">
    Duniya
  </text>

  <text x="170" y="180" font-size="26" font-weight="600"
        font-family="Poppins, Arial" fill="#0B3550">
    Your World For Shopping
  </text>
</svg>
